<svg xmlns="http://www.w3.org/2000/svg" viewBox="0 0 57.17 71.05"><defs><style>.cls-1{fill:#101425;}.cls-2{fill:#001027;}</style></defs><g id="Layer_2" data-name="Layer 2"><g id="Ebene_1" data-name="Ebene 1"><path class="cls-1" d="M8.05,14C6.91,9.33,5.19,5.55,4.2,5.55S1.49,9.33.35,14c-1.06,4.34.37,7.92,3.21,8.38v5.17H4.84V22.38c2.84-.46,4.27-4,3.21-8.38Z"/><path class="cls-1" d="M56.71,53.54c-1.46-6-3.69-10.9-5-10.9s-3.51,4.88-5,10.9c-1.37,5.62.47,10.23,4.14,10.84v6.67h1.65V64.38c3.67-.61,5.51-5.22,4.14-10.84Z"/><path class="cls-2" d="M47.84,13.2C46,5.9,43.34,0,41.84,0s-4.2,5.9-6,13.2c-1.7,6.8.6,12.4,5,13.1v8.1h2V26.3C47.34,25.5,49.54,19.9,47.84,13.2Z"/></g></g></svg>