<svg xmlns="http://www.w3.org/2000/svg" viewBox="0 0 146.6 100.5"><defs><style>.cls-1{fill:#23678a;}.cls-2{fill:#ffcb9a;}</style></defs><g id="Layer_2" data-name="Layer 2"><g id="Ebene_1" data-name="Ebene 1"><path class="cls-1" d="M0,12.8H62.6C56.6,8.5,50.5,4.3,44.5,0H18.2C12.1,4.3,6,8.6,0,12.8Z"/><rect class="cls-1" x="8.3" y="11.5" width="46" height="78.6"/><rect class="cls-2" x="24.2" y="22" width="1.5" height="3.5"/><rect class="cls-2" x="32.7" y="22" width="1.5" height="3.5"/><rect class="cls-2" x="41" y="22" width="1.5" height="3.5"/><rect class="cls-2" x="49.4" y="22" width="1.5" height="3.5"/><rect class="cls-2" x="11.7" y="22" width="1.5" height="3.5"/><rect class="cls-2" x="20" y="28.4" width="1.5" height="3.5"/><rect class="cls-2" x="24.2" y="28.4" width="1.5" height="3.5"/><rect class="cls-2" x="28.5" y="28.4" width="1.5" height="3.5"/><rect class="cls-2" x="41" y="28.4" width="1.5" height="3.5"/><rect class="cls-2" x="45.2" y="28.4" width="1.5" height="3.5"/><rect class="cls-2" x="32.7" y="35" width="1.5" height="3.5"/><rect class="cls-2" x="49.4" y="35" width="1.5" height="3.5"/><rect class="cls-2" x="11.7" y="35" width="1.5" height="3.5"/><rect class="cls-2" x="20" y="41.5" width="1.5" height="3.5"/><rect class="cls-2" x="24.2" y="41.5" width="1.5" height="3.5"/><rect class="cls-2" x="32.7" y="41.5" width="1.5" height="3.5"/><rect class="cls-2" x="36.9" y="41.5" width="1.5" height="3.5"/><rect class="cls-2" x="41" y="41.5" width="1.5" height="3.5"/><rect class="cls-2" x="41" y="48.1" width="1.5" height="3.5"/><rect class="cls-2" x="49.4" y="48.1" width="1.5" height="3.5"/><rect class="cls-2" x="15.8" y="54.5" width="1.5" height="3.5"/><rect class="cls-2" x="20" y="54.5" width="1.5" height="3.5"/><rect class="cls-2" x="28.5" y="54.5" width="1.5" height="3.5"/><rect class="cls-2" x="32.7" y="54.5" width="1.5" height="3.5"/><rect class="cls-2" x="36.9" y="54.5" width="1.5" height="3.5"/><rect class="cls-2" x="49.4" y="54.5" width="1.5" height="3.5"/><rect class="cls-2" x="11.7" y="54.5" width="1.5" height="3.5"/><rect class="cls-2" x="20" y="61.1" width="1.5" height="3.5"/><rect class="cls-2" x="36.9" y="61.1" width="1.5" height="3.5"/><rect class="cls-2" x="11.7" y="61.1" width="1.5" height="3.5"/><rect class="cls-2" x="28.5" y="67.6" width="1.5" height="3.5"/><rect class="cls-2" x="32.7" y="67.6" width="1.5" height="3.5"/><rect class="cls-2" x="45.2" y="67.6" width="1.5" height="3.5"/><rect class="cls-2" x="49.4" y="67.6" width="1.5" height="3.5"/><rect class="cls-2" x="15.8" y="74.2" width="1.5" height="3.5"/><rect class="cls-2" x="28.5" y="74.2" width="1.5" height="3.5"/><rect class="cls-2" x="41" y="74.2" width="1.5" height="3.5"/><rect class="cls-2" x="49.4" y="74.2" width="1.5" height="3.5"/><rect class="cls-2" x="11.7" y="74.2" width="1.5" height="3.5"/><rect class="cls-2" x="15.8" y="80.6" width="1.5" height="3.5"/><rect class="cls-2" x="24.2" y="80.6" width="1.5" height="3.5"/><rect class="cls-2" x="36.9" y="80.6" width="1.5" height="3.5"/><rect class="cls-2" x="41" y="80.6" width="1.5" height="3.5"/><rect class="cls-2" x="45.2" y="80.6" width="1.5" height="3.5"/><rect class="cls-2" x="15.8" y="15.4" width="1.5" height="3.5"/><rect class="cls-2" x="20" y="15.4" width="1.5" height="3.5"/><rect class="cls-2" x="32.7" y="15.4" width="1.5" height="3.5"/><rect class="cls-2" x="36.9" y="15.4" width="1.5" height="3.5"/><rect class="cls-2" x="49.4" y="15.4" width="1.5" height="3.5"/><rect class="cls-2" x="11.7" y="15.4" width="1.5" height="3.5"/><path class="cls-1" d="M146.6,12.8H45C51,8.5,57.1,4.3,63.1,0h65.3C134.6,4.3,140.6,8.6,146.6,12.8Z"/><rect class="cls-1" x="52.4" y="11.5" width="87" height="89"/><rect class="cls-2" x="80.6" y="21.9" width="1.5" height="3.5"/><rect class="cls-2" x="72.2" y="21.9" width="1.5" height="3.5"/><rect class="cls-2" x="63.8" y="21.9" width="1.5" height="3.5"/><rect class="cls-2" x="55.4" y="21.9" width="1.5" height="3.5"/><rect class="cls-2" x="93.2" y="21.9" width="1.5" height="3.5"/><rect class="cls-2" x="84.8" y="28.5" width="1.5" height="3.5"/><rect class="cls-2" x="80.6" y="28.5" width="1.5" height="3.5"/><rect class="cls-2" x="76.4" y="28.5" width="1.5" height="3.5"/><rect class="cls-2" x="63.8" y="28.5" width="1.5" height="3.5"/><rect class="cls-2" x="59.6" y="28.5" width="1.5" height="3.5"/><rect class="cls-2" x="72.2" y="35" width="1.5" height="3.5"/><rect class="cls-2" x="55.4" y="35" width="1.5" height="3.5"/><rect class="cls-2" x="93.2" y="35" width="1.5" height="3.5"/><rect class="cls-2" x="84.8" y="41.5" width="1.5" height="3.5"/><rect class="cls-2" x="80.6" y="41.5" width="1.5" height="3.5"/><rect class="cls-2" x="72.2" y="41.5" width="1.5" height="3.5"/><rect class="cls-2" x="68" y="41.5" width="1.5" height="3.5"/><rect class="cls-2" x="63.8" y="41.5" width="1.5" height="3.5"/><rect class="cls-2" x="63.8" y="48" width="1.5" height="3.5"/><rect class="cls-2" x="55.4" y="48" width="1.5" height="3.5"/><rect class="cls-2" x="89" y="54.6" width="1.5" height="3.5"/><rect class="cls-2" x="84.8" y="54.6" width="1.5" height="3.5"/><rect class="cls-2" x="76.4" y="54.6" width="1.5" height="3.5"/><rect class="cls-2" x="72.2" y="54.6" width="1.5" height="3.5"/><rect class="cls-2" x="68" y="54.6" width="1.5" height="3.5"/><rect class="cls-2" x="55.4" y="54.6" width="1.5" height="3.5"/><rect class="cls-2" x="93.2" y="54.6" width="1.5" height="3.5"/><rect class="cls-2" x="84.8" y="61.1" width="1.5" height="3.5"/><rect class="cls-2" x="68" y="61.1" width="1.5" height="3.5"/><rect class="cls-2" x="93.2" y="61.1" width="1.5" height="3.5"/><rect class="cls-2" x="76.4" y="67.6" width="1.5" height="3.5"/><rect class="cls-2" x="72.2" y="67.6" width="1.5" height="3.5"/><rect class="cls-2" x="59.6" y="67.6" width="1.5" height="3.5"/><rect class="cls-2" x="55.4" y="67.6" width="1.5" height="3.5"/><rect class="cls-2" x="89" y="74.1" width="1.5" height="3.5"/><rect class="cls-2" x="76.4" y="74.1" width="1.5" height="3.5"/><rect class="cls-2" x="63.8" y="74.1" width="1.5" height="3.5"/><rect class="cls-2" x="55.4" y="74.1" width="1.5" height="3.5"/><rect class="cls-2" x="93.2" y="74.1" width="1.5" height="3.5"/><rect class="cls-2" x="89" y="80.7" width="1.5" height="3.5"/><rect class="cls-2" x="80.6" y="80.7" width="1.5" height="3.5"/><rect class="cls-2" x="68" y="80.7" width="1.5" height="3.5"/><rect class="cls-2" x="63.8" y="80.7" width="1.5" height="3.5"/><rect class="cls-2" x="59.6" y="80.7" width="1.5" height="3.5"/><rect class="cls-2" x="84.8" y="87.2" width="1.5" height="3.5"/><rect class="cls-2" x="76.4" y="87.2" width="1.5" height="3.5"/><rect class="cls-2" x="72.2" y="87.2" width="1.5" height="3.5"/><rect class="cls-2" x="59.6" y="87.2" width="1.5" height="3.5"/><rect class="cls-2" x="55.4" y="87.2" width="1.5" height="3.5"/><rect class="cls-2" x="93.2" y="87.2" width="1.5" height="3.5"/><rect class="cls-2" x="89" y="15.4" width="1.5" height="3.5"/><rect class="cls-2" x="84.8" y="15.4" width="1.5" height="3.5"/><rect class="cls-2" x="72.2" y="15.4" width="1.5" height="3.5"/><rect class="cls-2" x="68" y="15.4" width="1.5" height="3.5"/><rect class="cls-2" x="55.4" y="15.4" width="1.5" height="3.5"/><rect class="cls-2" x="93.2" y="15.4" width="1.5" height="3.5"/><rect class="cls-2" x="89" y="93.7" width="1.5" height="3.5"/><rect class="cls-2" x="80.6" y="93.7" width="1.5" height="3.5"/><rect class="cls-2" x="68" y="93.7" width="1.5" height="3.5"/><rect class="cls-2" x="93.2" y="93.7" width="1.5" height="3.5"/><rect class="cls-2" x="122.2" y="21.9" width="1.5" height="3.5"/><rect class="cls-2" x="113.8" y="21.9" width="1.5" height="3.5"/><rect class="cls-2" x="105.4" y="21.9" width="1.5" height="3.5"/><rect class="cls-2" x="97" y="21.9" width="1.5" height="3.5"/><rect class="cls-2" x="134.8" y="21.9" width="1.5" height="3.5"/><rect class="cls-2" x="126.4" y="28.5" width="1.5" height="3.5"/><rect class="cls-2" x="122.2" y="28.5" width="1.5" height="3.5"/><rect class="cls-2" x="118" y="28.5" width="1.5" height="3.5"/><rect class="cls-2" x="105.4" y="28.5" width="1.5" height="3.5"/><rect class="cls-2" x="101.2" y="28.5" width="1.5" height="3.5"/><rect class="cls-2" x="113.8" y="35" width="1.5" height="3.5"/><rect class="cls-2" x="97" y="35" width="1.5" height="3.5"/><rect class="cls-2" x="134.8" y="35" width="1.5" height="3.5"/><rect class="cls-2" x="126.4" y="41.5" width="1.5" height="3.5"/><rect class="cls-2" x="122.2" y="41.5" width="1.5" height="3.5"/><rect class="cls-2" x="113.8" y="41.5" width="1.5" height="3.5"/><rect class="cls-2" x="109.6" y="41.5" width="1.5" height="3.5"/><rect class="cls-2" x="105.4" y="41.5" width="1.5" height="3.5"/><rect class="cls-2" x="105.4" y="48" width="1.5" height="3.5"/><rect class="cls-2" x="97" y="48" width="1.5" height="3.5"/><rect class="cls-2" x="130.6" y="54.6" width="1.5" height="3.5"/><rect class="cls-2" x="126.4" y="54.6" width="1.5" height="3.5"/><rect class="cls-2" x="118" y="54.6" width="1.5" height="3.5"/><rect class="cls-2" x="113.8" y="54.6" width="1.5" height="3.5"/><rect class="cls-2" x="109.6" y="54.6" width="1.5" height="3.5"/><rect class="cls-2" x="97" y="54.6" width="1.5" height="3.5"/><rect class="cls-2" x="134.8" y="54.6" width="1.5" height="3.5"/><rect class="cls-2" x="126.4" y="61.1" width="1.5" height="3.5"/><rect class="cls-2" x="109.6" y="61.1" width="1.5" height="3.5"/><rect class="cls-2" x="134.8" y="61.1" width="1.5" height="3.5"/><rect class="cls-2" x="118" y="67.6" width="1.5" height="3.5"/><rect class="cls-2" x="113.8" y="67.6" width="1.5" height="3.5"/><rect class="cls-2" x="101.2" y="67.6" width="1.5" height="3.5"/><rect class="cls-2" x="97" y="67.6" width="1.5" height="3.5"/><rect class="cls-2" x="130.6" y="74.1" width="1.5" height="3.5"/><rect class="cls-2" x="118" y="74.1" width="1.5" height="3.5"/><rect class="cls-2" x="105.4" y="74.1" width="1.5" height="3.5"/><rect class="cls-2" x="97" y="74.1" width="1.5" height="3.5"/><rect class="cls-2" x="134.8" y="74.1" width="1.5" height="3.5"/><rect class="cls-2" x="130.6" y="80.7" width="1.5" height="3.5"/><rect class="cls-2" x="122.2" y="80.7" width="1.5" height="3.5"/><rect class="cls-2" x="109.6" y="80.7" width="1.5" height="3.5"/><rect class="cls-2" x="105.4" y="80.7" width="1.5" height="3.5"/><rect class="cls-2" x="101.2" y="80.7" width="1.5" height="3.5"/><rect class="cls-2" x="126.4" y="87.2" width="1.5" height="3.5"/><rect class="cls-2" x="118" y="87.2" width="1.5" height="3.5"/><rect class="cls-2" x="113.8" y="87.2" width="1.5" height="3.5"/><rect class="cls-2" x="101.2" y="87.2" width="1.5" height="3.5"/><rect class="cls-2" x="97" y="87.2" width="1.5" height="3.5"/><rect class="cls-2" x="134.8" y="87.2" width="1.5" height="3.5"/><rect class="cls-2" x="130.6" y="15.4" width="1.5" height="3.5"/><rect class="cls-2" x="126.4" y="15.4" width="1.5" height="3.5"/><rect class="cls-2" x="113.8" y="15.4" width="1.5" height="3.5"/><rect class="cls-2" x="109.6" y="15.4" width="1.5" height="3.5"/><rect class="cls-2" x="97" y="15.4" width="1.5" height="3.5"/><rect class="cls-2" x="134.8" y="15.4" width="1.5" height="3.5"/><rect class="cls-2" x="130.6" y="93.7" width="1.5" height="3.5"/><rect class="cls-2" x="122.2" y="93.7" width="1.5" height="3.5"/><rect class="cls-2" x="109.6" y="93.7" width="1.5" height="3.5"/><rect class="cls-2" x="134.8" y="93.7" width="1.5" height="3.5"/></g></g></svg>