<svg xmlns="http://www.w3.org/2000/svg" viewBox="0 0 104.6 79.1"><defs><style>.cls-1{fill:#001027;}.cls-2{fill:#ffcb9a;}</style></defs><g id="Layer_2" data-name="Layer 2"><g id="Ebene_1" data-name="Ebene 1"><path class="cls-1" d="M104.6,15.6H0L11.1,0H93.6C97.2,5.2,100.9,10.4,104.6,15.6Z"/><rect class="cls-1" x="6.5" y="14.5" width="91.6" height="64.6"/><rect class="cls-2" x="76.8" y="18.1" width="2.6" height="6.1"/><rect class="cls-2" x="69.4" y="18.1" width="2.6" height="6.1"/><rect class="cls-2" x="62" y="18.1" width="2.6" height="6.1"/><rect class="cls-2" x="47.3" y="18.1" width="2.6" height="6.1"/><rect class="cls-2" x="17.7" y="18.1" width="2.6" height="6.1"/><rect class="cls-2" x="10.4" y="18.1" width="2.6" height="6.1"/><rect class="cls-2" x="91.5" y="18.1" width="2.6" height="6.1"/><rect class="cls-2" x="39.9" y="30.8" width="2.6" height="6.1"/><rect class="cls-2" x="32.5" y="30.8" width="2.6" height="6.1"/><rect class="cls-2" x="25.1" y="30.8" width="2.6" height="6.1"/><rect class="cls-2" x="10.4" y="30.8" width="2.6" height="6.1"/><rect class="cls-2" x="91.5" y="30.8" width="2.6" height="6.1"/><rect class="cls-2" x="76.8" y="43.6" width="2.6" height="6.1"/><rect class="cls-2" x="62" y="43.6" width="2.6" height="6.1"/><rect class="cls-2" x="47.3" y="43.6" width="2.6" height="6.1"/><rect class="cls-2" x="25.1" y="43.6" width="2.6" height="6.1"/><rect class="cls-2" x="17.7" y="43.6" width="2.6" height="6.1"/><rect class="cls-2" x="84.2" y="56.3" width="2.6" height="6.1"/><rect class="cls-2" x="76.8" y="56.3" width="2.6" height="6.1"/><rect class="cls-2" x="62" y="56.3" width="2.6" height="6.1"/><rect class="cls-2" x="54.6" y="56.3" width="2.6" height="6.1"/><rect class="cls-2" x="39.9" y="56.3" width="2.6" height="6.1"/><rect class="cls-2" x="32.5" y="56.3" width="2.6" height="6.1"/><rect class="cls-2" x="25.1" y="56.3" width="2.6" height="6.1"/><rect class="cls-2" x="10.4" y="56.3" width="2.6" height="6.1"/><rect class="cls-2" x="76.8" y="69" width="2.6" height="6.1"/><rect class="cls-2" x="62" y="69" width="2.6" height="6.1"/><rect class="cls-2" x="47.3" y="69" width="2.6" height="6.1"/><rect class="cls-2" x="39.9" y="69" width="2.6" height="6.1"/><rect class="cls-2" x="17.7" y="69" width="2.6" height="6.1"/><rect class="cls-2" x="10.4" y="69" width="2.6" height="6.1"/><rect class="cls-2" x="91.5" y="69" width="2.6" height="6.1"/></g></g></svg>