<svg xmlns="http://www.w3.org/2000/svg" viewBox="0 0 62.6 100.5"><defs><style>.cls-1{fill:#024d6d;}.cls-2{fill:#ffcb9a;}</style></defs><g id="Layer_2" data-name="Layer 2"><g id="Ebene_1" data-name="Ebene 1"><path class="cls-1" d="M62.6,12.8H0C6,8.5,12.1,4.3,18.1,0H44.4C50.6,4.3,56.6,8.5,62.6,12.8Z"/><rect class="cls-1" x="8.4" y="11.5" width="46" height="89"/><rect class="cls-2" x="36.9" y="21.9" width="1.5" height="3.5"/><rect class="cls-2" x="28.5" y="21.9" width="1.5" height="3.5"/><rect class="cls-2" x="20.1" y="21.9" width="1.5" height="3.5"/><rect class="cls-2" x="11.7" y="21.9" width="1.5" height="3.5"/><rect class="cls-2" x="49.5" y="21.9" width="1.5" height="3.5"/><rect class="cls-2" x="41.1" y="28.4" width="1.5" height="3.5"/><rect class="cls-2" x="36.9" y="28.4" width="1.5" height="3.5"/><rect class="cls-2" x="32.7" y="28.4" width="1.5" height="3.5"/><rect class="cls-2" x="20.1" y="28.4" width="1.5" height="3.5"/><rect class="cls-2" x="15.9" y="28.4" width="1.5" height="3.5"/><rect class="cls-2" x="28.5" y="35" width="1.5" height="3.5"/><rect class="cls-2" x="11.7" y="35" width="1.5" height="3.5"/><rect class="cls-2" x="49.5" y="35" width="1.5" height="3.5"/><rect class="cls-2" x="41.1" y="41.5" width="1.5" height="3.5"/><rect class="cls-2" x="36.9" y="41.5" width="1.5" height="3.5"/><rect class="cls-2" x="28.5" y="41.5" width="1.5" height="3.5"/><rect class="cls-2" x="24.3" y="41.5" width="1.5" height="3.5"/><rect class="cls-2" x="20.1" y="41.5" width="1.5" height="3.5"/><rect class="cls-2" x="20.1" y="48" width="1.5" height="3.5"/><rect class="cls-2" x="11.7" y="48" width="1.5" height="3.5"/><rect class="cls-2" x="45.3" y="54.5" width="1.5" height="3.5"/><rect class="cls-2" x="41.1" y="54.5" width="1.5" height="3.5"/><rect class="cls-2" x="32.7" y="54.5" width="1.5" height="3.5"/><rect class="cls-2" x="28.5" y="54.5" width="1.5" height="3.5"/><rect class="cls-2" x="24.3" y="54.5" width="1.5" height="3.5"/><rect class="cls-2" x="11.7" y="54.5" width="1.5" height="3.5"/><rect class="cls-2" x="49.5" y="54.5" width="1.5" height="3.5"/><rect class="cls-2" x="41.1" y="61.1" width="1.5" height="3.5"/><rect class="cls-2" x="24.3" y="61.1" width="1.5" height="3.5"/><rect class="cls-2" x="49.5" y="61.1" width="1.5" height="3.5"/><rect class="cls-2" x="32.7" y="67.6" width="1.5" height="3.5"/><rect class="cls-2" x="28.5" y="67.6" width="1.5" height="3.5"/><rect class="cls-2" x="15.9" y="67.6" width="1.5" height="3.5"/><rect class="cls-2" x="11.7" y="67.6" width="1.5" height="3.5"/><rect class="cls-2" x="45.3" y="74.1" width="1.5" height="3.5"/><rect class="cls-2" x="32.7" y="74.1" width="1.5" height="3.5"/><rect class="cls-2" x="20.1" y="74.1" width="1.5" height="3.5"/><rect class="cls-2" x="11.7" y="74.1" width="1.5" height="3.5"/><rect class="cls-2" x="49.5" y="74.1" width="1.5" height="3.5"/><rect class="cls-2" x="45.3" y="80.6" width="1.5" height="3.5"/><rect class="cls-2" x="36.9" y="80.6" width="1.5" height="3.5"/><rect class="cls-2" x="24.3" y="80.6" width="1.5" height="3.5"/><rect class="cls-2" x="20.1" y="80.6" width="1.5" height="3.5"/><rect class="cls-2" x="15.9" y="80.6" width="1.5" height="3.5"/><rect class="cls-2" x="41.1" y="87.2" width="1.5" height="3.5"/><rect class="cls-2" x="32.7" y="87.2" width="1.5" height="3.5"/><rect class="cls-2" x="28.5" y="87.2" width="1.5" height="3.5"/><rect class="cls-2" x="15.9" y="87.2" width="1.5" height="3.5"/><rect class="cls-2" x="11.7" y="87.2" width="1.5" height="3.5"/><rect class="cls-2" x="49.5" y="87.2" width="1.5" height="3.5"/><rect class="cls-2" x="45.3" y="15.4" width="1.5" height="3.5"/><rect class="cls-2" x="41.1" y="15.4" width="1.5" height="3.5"/><rect class="cls-2" x="28.5" y="15.4" width="1.5" height="3.5"/><rect class="cls-2" x="24.3" y="15.4" width="1.5" height="3.5"/><rect class="cls-2" x="11.7" y="15.4" width="1.5" height="3.5"/><rect class="cls-2" x="49.5" y="15.4" width="1.5" height="3.5"/><rect class="cls-2" x="45.3" y="93.7" width="1.5" height="3.5"/><rect class="cls-2" x="36.9" y="93.7" width="1.5" height="3.5"/><rect class="cls-2" x="24.3" y="93.7" width="1.5" height="3.5"/><rect class="cls-2" x="49.5" y="93.7" width="1.5" height="3.5"/></g></g></svg>