<svg xmlns="http://www.w3.org/2000/svg" viewBox="0 0 64.57 86.6"><defs><style>.cls-1{fill:#24688a;}.cls-2{fill:#fce19d;}</style></defs><g id="Layer_2" data-name="Layer 2"><g id="Ebene_1" data-name="Ebene 1"><path class="cls-1" d="M64.57,8.77H0Q4.28,4.38,8.56,0H56q4.27,4.38,8.56,8.77Z"/><polygon class="cls-1" points="60.33 86.6 4.36 86.6 4.36 7.47 60.33 7.47 60.33 86.6 60.33 86.6"/><polygon class="cls-2" points="53.69 59.26 50.92 59.26 50.92 53.7 53.69 53.7 53.69 59.26 53.69 59.26"/><polygon class="cls-2" points="48.7 59.26 45.93 59.26 45.93 53.7 48.7 53.7 48.7 59.26 48.7 59.26"/><polygon class="cls-2" points="38.72 59.26 35.95 59.26 35.95 53.7 38.72 53.7 38.72 59.26 38.72 59.26"/><polygon class="cls-2" points="28.74 59.26 25.97 59.26 25.97 53.7 28.74 53.7 28.74 59.26 28.74 59.26"/><polygon class="cls-2" points="23.75 59.26 20.98 59.26 20.98 53.7 23.75 53.7 23.75 59.26 23.75 59.26"/><polygon class="cls-2" points="13.77 59.26 11 59.26 11 53.7 13.77 53.7 13.77 59.26 13.77 59.26"/><polygon class="cls-2" points="8.78 59.26 6.01 59.26 6.01 53.7 8.78 53.7 8.78 59.26 8.78 59.26"/><polygon class="cls-2" points="58.69 67.76 55.91 67.76 55.91 62.2 58.69 62.2 58.69 67.76 58.69 67.76"/><polygon class="cls-2" points="48.7 67.76 45.93 67.76 45.93 62.2 48.7 62.2 48.7 67.76 48.7 67.76"/><polygon class="cls-2" points="38.72 67.76 35.95 67.76 35.95 62.2 38.72 62.2 38.72 67.76 38.72 67.76"/><polygon class="cls-2" points="33.73 67.76 30.96 67.76 30.96 62.2 33.73 62.2 33.73 67.76 33.73 67.76"/><polygon class="cls-2" points="28.74 67.76 25.97 67.76 25.97 62.2 28.74 62.2 28.74 67.76 28.74 67.76"/><polygon class="cls-2" points="18.76 67.76 15.99 67.76 15.99 62.2 18.76 62.2 18.76 67.76 18.76 67.76"/><polygon class="cls-2" points="53.69 76.25 50.92 76.25 50.92 70.7 53.69 70.7 53.69 76.25 53.69 76.25"/><polygon class="cls-2" points="43.71 76.25 40.94 76.25 40.94 70.7 43.71 70.7 43.71 76.25 43.71 76.25"/><polygon class="cls-2" points="38.72 76.25 35.95 76.25 35.95 70.7 38.72 70.7 38.72 76.25 38.72 76.25"/><polygon class="cls-2" points="23.75 76.25 20.98 76.25 20.98 70.7 23.75 70.7 23.75 76.25 23.75 76.25"/><polygon class="cls-2" points="18.76 76.25 15.99 76.25 15.99 70.7 18.76 70.7 18.76 76.25 18.76 76.25"/><polygon class="cls-2" points="13.77 76.25 11 76.25 11 70.7 13.77 70.7 13.77 76.25 13.77 76.25"/><polygon class="cls-2" points="58.69 84.75 55.91 84.75 55.91 79.2 58.69 79.2 58.69 84.75 58.69 84.75"/><polygon class="cls-2" points="48.7 84.75 45.93 84.75 45.93 79.2 48.7 79.2 48.7 84.75 48.7 84.75"/><polygon class="cls-2" points="43.71 84.75 40.94 84.75 40.94 79.2 43.71 79.2 43.71 84.75 43.71 84.75"/><polygon class="cls-2" points="28.74 84.75 25.97 84.75 25.97 79.2 28.74 79.2 28.74 84.75 28.74 84.75"/><polygon class="cls-2" points="23.75 84.75 20.98 84.75 20.98 79.2 23.75 79.2 23.75 84.75 23.75 84.75"/><polygon class="cls-2" points="13.77 84.75 11 84.75 11 79.2 13.77 79.2 13.77 84.75 13.77 84.75"/><polygon class="cls-2" points="8.78 84.75 6.01 84.75 6.01 79.2 8.78 79.2 8.78 84.75 8.78 84.75"/><polygon class="cls-2" points="58.69 50.76 55.91 50.76 55.91 45.21 58.69 45.21 58.69 50.76 58.69 50.76"/><polygon class="cls-2" points="53.69 50.76 50.92 50.76 50.92 45.21 53.69 45.21 53.69 50.76 53.69 50.76"/><polygon class="cls-2" points="43.71 50.76 40.94 50.76 40.94 45.21 43.71 45.21 43.71 50.76 43.71 50.76"/><polygon class="cls-2" points="38.72 50.76 35.95 50.76 35.95 45.21 38.72 45.21 38.72 50.76 38.72 50.76"/><polygon class="cls-2" points="33.73 50.76 30.96 50.76 30.96 45.21 33.73 45.21 33.73 50.76 33.73 50.76"/><polygon class="cls-2" points="23.75 50.76 20.98 50.76 20.98 45.21 23.75 45.21 23.75 50.76 23.75 50.76"/><polygon class="cls-2" points="18.76 50.76 15.99 50.76 15.99 45.21 18.76 45.21 18.76 50.76 18.76 50.76"/><polygon class="cls-2" points="8.78 50.76 6.01 50.76 6.01 45.21 8.78 45.21 8.78 50.76 8.78 50.76"/><polygon class="cls-2" points="53.69 16.67 50.92 16.67 50.92 11.11 53.69 11.11 53.69 16.67 53.69 16.67"/><polygon class="cls-2" points="43.71 16.67 40.94 16.67 40.94 11.11 43.71 11.11 43.71 16.67 43.71 16.67"/><polygon class="cls-2" points="38.72 16.67 35.95 16.67 35.95 11.11 38.72 11.11 38.72 16.67 38.72 16.67"/><polygon class="cls-2" points="23.75 16.67 20.98 16.67 20.98 11.11 23.75 11.11 23.75 16.67 23.75 16.67"/><polygon class="cls-2" points="18.76 16.67 15.99 16.67 15.99 11.11 18.76 11.11 18.76 16.67 18.76 16.67"/><polygon class="cls-2" points="13.77 16.67 11 16.67 11 11.11 13.77 11.11 13.77 16.67 13.77 16.67"/><polygon class="cls-2" points="58.69 25.16 55.91 25.16 55.91 19.61 58.69 19.61 58.69 25.16 58.69 25.16"/><polygon class="cls-2" points="48.7 25.16 45.93 25.16 45.93 19.61 48.7 19.61 48.7 25.16 48.7 25.16"/><polygon class="cls-2" points="43.71 25.16 40.94 25.16 40.94 19.61 43.71 19.61 43.71 25.16 43.71 25.16"/><polygon class="cls-2" points="28.74 25.16 25.97 25.16 25.97 19.61 28.74 19.61 28.74 25.16 28.74 25.16"/><polygon class="cls-2" points="23.75 25.16 20.98 25.16 20.98 19.61 23.75 19.61 23.75 25.16 23.75 25.16"/><polygon class="cls-2" points="13.77 25.16 11 25.16 11 19.61 13.77 19.61 13.77 25.16 13.77 25.16"/><polygon class="cls-2" points="8.78 25.16 6.01 25.16 6.01 19.61 8.78 19.61 8.78 25.16 8.78 25.16"/><polygon class="cls-2" points="53.69 33.66 50.92 33.66 50.92 28.11 53.69 28.11 53.69 33.66 53.69 33.66"/><polygon class="cls-2" points="43.71 33.66 40.94 33.66 40.94 28.11 43.71 28.11 43.71 33.66 43.71 33.66"/><polygon class="cls-2" points="38.72 33.66 35.95 33.66 35.95 28.11 38.72 28.11 38.72 33.66 38.72 33.66"/><polygon class="cls-2" points="18.76 33.66 15.99 33.66 15.99 28.11 18.76 28.11 18.76 33.66 18.76 33.66"/><polygon class="cls-2" points="13.77 33.66 11 33.66 11 28.11 13.77 28.11 13.77 33.66 13.77 33.66"/><polygon class="cls-2" points="58.69 42.16 55.91 42.16 55.91 36.61 58.69 36.61 58.69 42.16 58.69 42.16"/><polygon class="cls-2" points="48.7 42.16 45.93 42.16 45.93 36.61 48.7 36.61 48.7 42.16 48.7 42.16"/><polygon class="cls-2" points="43.71 42.16 40.94 42.16 40.94 36.61 43.71 36.61 43.71 42.16 43.71 42.16"/><polygon class="cls-2" points="28.74 42.16 25.97 42.16 25.97 36.61 28.74 36.61 28.74 42.16 28.74 42.16"/><polygon class="cls-2" points="23.75 42.16 20.98 42.16 20.98 36.61 23.75 36.61 23.75 42.16 23.75 42.16"/><polygon class="cls-2" points="18.76 42.16 15.99 42.16 15.99 36.61 18.76 36.61 18.76 42.16 18.76 42.16"/><polygon class="cls-2" points="8.78 42.16 6.01 42.16 6.01 36.61 8.78 36.61 8.78 42.16 8.78 42.16"/></g></g></svg>