<svg xmlns="http://www.w3.org/2000/svg" viewBox="0 0 61.47 104.43"><defs><style>.cls-1{fill:#fce19d;}.cls-2{fill:#101425;}</style></defs><g id="Layer_2" data-name="Layer 2"><g id="Ebene_1" data-name="Ebene 1"><polygon class="cls-1" points="8.15 63.61 4.99 63.61 4.99 57.29 8.15 57.29 8.15 63.61 8.15 63.61"/><polygon class="cls-1" points="8.15 73.28 4.99 73.28 4.99 66.96 8.15 66.96 8.15 73.28 8.15 73.28"/><polygon class="cls-1" points="8.15 92.62 4.99 92.62 4.99 86.3 8.15 86.3 8.15 92.62 8.15 92.62"/><polygon class="cls-1" points="8.15 44.27 4.99 44.27 4.99 37.95 8.15 37.95 8.15 44.27 8.15 44.27"/><polygon class="cls-1" points="8.15 102.29 4.99 102.29 4.99 95.97 8.15 95.97 8.15 102.29 8.15 102.29"/><polygon class="cls-2" points="56.7 104.43 4.76 104.43 4.76 11.21 56.7 11.21 56.7 104.43 56.7 104.43"/><path class="cls-2" d="M61.47,11.21H0L11.49,0H50L61.47,11.21Z"/><polygon class="cls-1" points="46.46 33.28 42.91 33.28 42.91 26.18 46.46 26.18 46.46 33.28 46.46 33.28"/><polygon class="cls-1" points="39.48 33.28 35.93 33.28 35.93 26.18 39.48 26.18 39.48 33.28 39.48 33.28"/><polygon class="cls-1" points="25.54 33.28 21.99 33.28 21.99 26.18 25.54 26.18 25.54 33.28 25.54 33.28"/><polygon class="cls-1" points="18.56 33.28 15.01 33.28 15.01 26.18 18.56 26.18 18.56 33.28 18.56 33.28"/><polygon class="cls-1" points="39.48 44.69 35.93 44.69 35.93 37.59 39.48 37.59 39.48 44.69 39.48 44.69"/><polygon class="cls-1" points="25.54 44.69 21.99 44.69 21.99 37.59 25.54 37.59 25.54 44.69 25.54 44.69"/><polygon class="cls-1" points="11.59 44.69 8.04 44.69 8.04 37.59 11.59 37.59 11.59 44.69 11.59 44.69"/><polygon class="cls-1" points="46.46 56.11 42.91 56.11 42.91 49.01 46.46 49.01 46.46 56.11 46.46 56.11"/><polygon class="cls-1" points="18.56 56.11 15.01 56.11 15.01 49.01 18.56 49.01 18.56 56.11 18.56 56.11"/><polygon class="cls-1" points="11.59 56.11 8.04 56.11 8.04 49.01 11.59 49.01 11.59 56.11 11.59 56.11"/><polygon class="cls-1" points="53.43 56.11 49.88 56.11 49.88 49.01 53.43 49.01 53.43 56.11 53.43 56.11"/><polygon class="cls-1" points="39.48 67.52 35.93 67.52 35.93 60.42 39.48 60.42 39.48 67.52 39.48 67.52"/><polygon class="cls-1" points="32.51 67.52 28.96 67.52 28.96 60.42 32.51 60.42 32.51 67.52 32.51 67.52"/><polygon class="cls-1" points="25.54 67.52 21.99 67.52 21.99 60.42 25.54 60.42 25.54 67.52 25.54 67.52"/><polygon class="cls-1" points="11.59 67.52 8.04 67.52 8.04 60.42 11.59 60.42 11.59 67.52 11.59 67.52"/><polygon class="cls-1" points="53.43 67.52 49.88 67.52 49.88 60.42 53.43 60.42 53.43 67.52 53.43 67.52"/><polygon class="cls-1" points="46.46 78.94 42.91 78.94 42.91 71.84 46.46 71.84 46.46 78.94 46.46 78.94"/><polygon class="cls-1" points="32.51 78.94 28.96 78.94 28.96 71.84 32.51 71.84 32.51 78.94 32.51 78.94"/><polygon class="cls-1" points="18.56 78.94 15.01 78.94 15.01 71.84 18.56 71.84 18.56 78.94 18.56 78.94"/><polygon class="cls-1" points="39.48 90.35 35.93 90.35 35.93 83.25 39.48 83.25 39.48 90.35 39.48 90.35"/><polygon class="cls-1" points="32.51 90.35 28.96 90.35 28.96 83.25 32.51 83.25 32.51 90.35 32.51 90.35"/><polygon class="cls-1" points="25.54 90.35 21.99 90.35 21.99 83.25 25.54 83.25 25.54 90.35 25.54 90.35"/><polygon class="cls-1" points="11.59 90.35 8.04 90.35 8.04 83.25 11.59 83.25 11.59 90.35 11.59 90.35"/><polygon class="cls-1" points="53.43 90.35 49.88 90.35 49.88 83.25 53.43 83.25 53.43 90.35 53.43 90.35"/><polygon class="cls-1" points="46.46 21.86 42.91 21.86 42.91 14.76 46.46 14.76 46.46 21.86 46.46 21.86"/><polygon class="cls-1" points="32.51 21.86 28.96 21.86 28.96 14.76 32.51 14.76 32.51 21.86 32.51 21.86"/><polygon class="cls-1" points="18.56 21.86 15.01 21.86 15.01 14.76 18.56 14.76 18.56 21.86 18.56 21.86"/><polygon class="cls-1" points="11.59 21.86 8.04 21.86 8.04 14.76 11.59 14.76 11.59 21.86 11.59 21.86"/><polygon class="cls-1" points="53.43 21.86 49.88 21.86 49.88 14.76 53.43 14.76 53.43 21.86 53.43 21.86"/><polygon class="cls-1" points="46.46 101.77 42.91 101.77 42.91 94.67 46.46 94.67 46.46 101.77 46.46 101.77"/><polygon class="cls-1" points="32.51 101.77 28.96 101.77 28.96 94.67 32.51 94.67 32.51 101.77 32.51 101.77"/><polygon class="cls-1" points="18.56 101.77 15.01 101.77 15.01 94.67 18.56 94.67 18.56 101.77 18.56 101.77"/><polygon class="cls-1" points="11.59 101.77 8.04 101.77 8.04 94.67 11.59 94.67 11.59 101.77 11.59 101.77"/><polygon class="cls-1" points="53.43 101.77 49.88 101.77 49.88 94.67 53.43 94.67 53.43 101.77 53.43 101.77"/></g></g></svg>