<svg xmlns="http://www.w3.org/2000/svg" viewBox="0 0 176.14 122.26"><defs><style>.cls-1{fill:#101425;}.cls-2{fill:#fce19d;}</style></defs><g id="Layer_2" data-name="Layer 2"><g id="Ebene_1" data-name="Ebene 1"><path class="cls-1" d="M151.71,97.69l-1.94-.59a13.51,13.51,0,0,0-2.05-2.57c-.55-.27-7.17-2.21-22.35-2.77L124.44,78s1.11-.38.73-3.08c0,0,2.39-1.11,2.7-2.85a10.94,10.94,0,0,0,0-3.36,2.46,2.46,0,0,0,.38-3.46l-.48-12.41-1.32-1.94v1.32s-2-2.39-4.12-2.88v-.76l-1.08-1.94-.38-.18-.72-1.62-1.91-.59V45.6l-1.18-.45v2.26s-6-2.71-19.34-6.38l-.34-.87V36a1.73,1.73,0,0,0,.79-1.67,3.09,3.09,0,0,0-1.35-1.73,12.26,12.26,0,0,0-7.24-9.36v-.76l.62-.45-.17-.66-.76-.94L88.07,7.93l-.15-3.17a.51.51,0,0,0,.45-.46.52.52,0,0,0-.49-.48L87.7,0l-.12,3.84a.51.51,0,0,0-.42.46.5.5,0,0,0,.39.45L87.44,8,86.3,20.27l-1,1.46.26.67H86v.83s-5.77,1.51-6.91,9.15c0,0-1.67,1.09-1.67,2.19a2.54,2.54,0,0,0,1,1.82V41l-6.91,2.24v-.73l-1.87.31V41.48L66.81,42l-.52,1.71-1.42.18-.59,1.49a34.15,34.15,0,0,0-5.09,2.14A67.46,67.46,0,0,0,52.29,50V47.89l-.45.62V47.06l-1,.9-1.14,2v.51l-.76,1.25V53.4a3,3,0,0,0-.73,2.18V64.8s-2.36,2.08,0,3.92V71.8l2.7,3v2.84l.9.45-1,13.79s-20.1,1-22.56,3L0,122.26H176.14L151.71,97.69Z"/><path class="cls-2" d="M88.36,35.76A1.77,1.77,0,1,1,86.6,34a1.76,1.76,0,0,1,1.76,1.77Z"/><path class="cls-2" d="M96.61,37.53c0,1-.3,1.77-.67,1.77s-.68-.79-.68-1.77.3-1.77.68-1.77.67.79.67,1.77Z"/><path class="cls-2" d="M80.77,39.3v-4s-.1-1.21.91-1.52.72,2,.72,2v3l-1.63.59Z"/><path class="cls-2" d="M91,38.33V34.38s0-1.32,1.21-1.08,1,2.15,1,2.46v3L91,38.33Z"/><path class="cls-2" d="M66,57.91v-6c0-1.84.93-2.6,1.8-2.6s1.35.73,1.35,2.7v5.68L66,57.91Z"/><path class="cls-2" d="M94.53,57V50.52s0-2.6,1.84-2.53c2.11.08,1.9,2.29,1.9,3v6Z"/><path class="cls-2" d="M119.31,59.85V54.09s-.11-2.63,1.14-2.25,1.15,2.63,1.15,3.4v5.13l-2.29-.52Z"/><path class="cls-2" d="M49.34,62.72V57s0-2.46.73-2.46.66,1.66.66,2.56V62l-1.39.77Z"/><path class="cls-2" d="M52.93,55.09v6l.42-.19v-6l-.42.19Z"/><path class="cls-2" d="M53.88,54.67v6l.45-.18v-6l-.45.18Z"/><path class="cls-2" d="M54.85,54.31v6l.52-.17v-6l-.52.18Z"/><path class="cls-2" d="M56,54v6l.69-.19v-6L56,54Z"/><path class="cls-2" d="M57.28,53.6v6l.66-.15v-6l-.66.15Z"/><path class="cls-2" d="M58.53,53.33v6l.76-.14v-6l-.76.15Z"/><path class="cls-2" d="M59.84,53.08v6l.8-.13V53l-.8.12Z"/><path class="cls-2" d="M61.37,52.86v6l.9-.11v-6l-.9.11Z"/><path class="cls-2" d="M73.64,51V57l1.14-.14V50.81L73.64,51Z"/><path class="cls-2" d="M75.72,50.71v6.08l1.15-.1V50.61l-1.15.1Z"/><path class="cls-2" d="M77.85,50.53v6.08l1.07-.06V50.47l-1.07.06Z"/><path class="cls-2" d="M79.92,50.42V56.5l1.11,0V50.38l-1.11,0Z"/><path class="cls-2" d="M82,50.35v6.09h1.11V50.34Z"/><path class="cls-2" d="M84.06,50.34v6.09h1.18V50.35Z"/><path class="cls-2" d="M86.2,50.37v6.09l1.08,0V50.4l-1.08,0Z"/><path class="cls-2" d="M88.26,50.44v6.09l1.14.06v-6.1l-1.14-.05Z"/><path class="cls-2" d="M102.71,51.26V57l1.14.06V51.32l-1.14-.06Z"/><path class="cls-2" d="M104.58,51.38v5.75l1.21.1V51.48l-1.21-.1Z"/><path class="cls-2" d="M106.56,51.56v5.76c.35,0,.72.08,1.11.13V51.69l-1.11-.13Z"/><path class="cls-2" d="M108.22,51.77v5.75l1.25.18V52l-1.25-.18Z"/><path class="cls-2" d="M110.06,52V57.8l1.11.19V52.24l-1.11-.2Z"/><path class="cls-2" d="M111.75,52.35V58.1l1.11.23V52.57l-1.11-.22Z"/><path class="cls-2" d="M113.42,52.7v5.75l.83.19V52.89l-.83-.19Z"/><path class="cls-2" d="M114.91,53.05V58.8l.83.22V53.26l-.83-.21Z"/><path class="cls-2" d="M123.16,55.48v5.29l.62.28V55.8c-.23-.13-.44-.23-.62-.32Z"/><path class="cls-2" d="M124.06,56v5.23l.59.31V56.32l-.59-.36Z"/><path class="cls-2" d="M124.89,56.48v5.16l.41.24v-5.1l-.41-.3Z"/><path class="cls-2" d="M125.55,57V62l.41.27v-5l-.41-.34Z"/><path class="cls-2" d="M126.31,57.61v4.93l.41.3V58l-.41-.39Z"/><path class="cls-2" d="M127.11,58.4v4.73l.41.34v-4.6c-.14-.16-.27-.32-.41-.47Z"/><path class="cls-2" d="M87.44,68.09a.94.94,0,1,1-.93-.93.93.93,0,0,1,.93.93Z"/><path class="cls-2" d="M82.94,68.09a.87.87,0,1,1-.86-.93.9.9,0,0,1,.86.93Z"/><path class="cls-2" d="M78.61,68.35a.87.87,0,1,1-.87-.93.91.91,0,0,1,.87.93Z"/><path class="cls-2" d="M74.37,68.66a.76.76,0,1,1-.73-.93.86.86,0,0,1,.73.93Z"/><path class="cls-2" d="M70.46,69A.76.76,0,1,1,69,69a.76.76,0,1,1,1.47,0Z"/><path class="cls-2" d="M66.71,69.42a.76.76,0,1,1-1.47,0,.76.76,0,1,1,1.47,0Z"/><path class="cls-2" d="M63.38,69.93c0,.52-.27.94-.6.94s-.59-.42-.59-.94.26-.94.59-.94.6.42.6.94Z"/><path class="cls-2" d="M60.24,70.54c0,.51-.21.93-.47.93s-.48-.42-.48-.93.21-.94.48-.94.47.42.47.94Z"/><path class="cls-2" d="M57.77,71.1c0,.52-.21.94-.47.94s-.48-.42-.48-.94.21-.93.48-.93.47.42.47.93Z"/><path class="cls-2" d="M55.53,71.66c0,.51-.18.93-.42.93s-.42-.42-.42-.93.19-.94.42-.94.42.42.42.94Z"/><path class="cls-2" d="M53.56,72.41c0,.51-.14.93-.32.93s-.31-.42-.31-.93.14-.94.31-.94.32.42.32.94Z"/><path class="cls-2" d="M51.89,73.34c0,.52-.14.94-.31.94s-.31-.42-.31-.94.14-.93.31-.93.31.42.31.93Z"/><path class="cls-2" d="M91.92,68.09a.94.94,0,1,1-.94-.93.94.94,0,0,1,.94.93Z"/><path class="cls-2" d="M96.28,68.25a.81.81,0,1,1-1.61,0,.81.81,0,1,1,1.61,0Z"/><path class="cls-2" d="M100.49,68.44a.81.81,0,1,1-1.61,0,.81.81,0,1,1,1.61,0Z"/><path class="cls-2" d="M104.58,68.75a.75.75,0,1,1-.73-.93.85.85,0,0,1,.73.93Z"/><path class="cls-2" d="M108.23,69c0,.52-.29.93-.65.93s-.64-.41-.64-.93.29-.94.64-.94.65.42.65.94Z"/><path class="cls-2" d="M111.64,69.38c0,.51-.25.93-.56.93s-.56-.42-.56-.93.25-.94.56-.94.56.42.56.94Z"/><path class="cls-2" d="M114.67,70c0,.52-.19.94-.42.94s-.42-.42-.42-.94.19-.93.42-.93.42.42.42.93Z"/><path class="cls-2" d="M117.63,70.62c0,.52-.19.94-.42.94s-.41-.42-.41-.94.18-.93.41-.93.42.42.42.93Z"/><path class="cls-2" d="M119.78,71.25c0,.51-.15.93-.34.93s-.33-.42-.33-.93.15-.94.33-.94.34.42.34.94Z"/><path class="cls-2" d="M121.8,72c0,.51-.15.93-.33.93s-.33-.42-.33-.93.15-.94.33-.94.33.42.33.94Z"/><path class="cls-2" d="M123.49,72.73c0,.52-.15.93-.33.93s-.34-.41-.34-.93.15-.94.34-.94.33.42.33.94Z"/><path class="cls-2" d="M125,73.66c0,.52-.15.94-.33.94s-.34-.42-.34-.94.15-.93.34-.93.33.42.33.93Z"/><path class="cls-2" d="M54.46,91.51h-.62s.23-8.71.31-10.37.39-3.3,1.09-3.09l-.78,13.46Z"/><path class="cls-2" d="M61.06,76.59c-1.86,0-1.77,3.33-1.77,4.55V91.28l2.9-.13s.38-9.8.38-11.49-.36-3.07-1.51-3.07Z"/><path class="cls-2" d="M70.47,75.45c-2.1,0-2.21,2.39-2.21,3.66V91l4.34-.06V79.06c0-2-.31-3.61-2.13-3.61Z"/><path class="cls-2" d="M82.43,74.77C80.09,74.77,80,76.88,80,78V90.78h5.09V78.13c0-1.82-.46-3.36-2.62-3.36Z"/><path class="cls-2" d="M95.09,74.77c-1.72,0-2.27,1.59-2.27,2.84V90.78l4.81.09V78.26c0-1.85-.49-3.49-2.54-3.49Z"/><path class="cls-2" d="M106.94,75.55c-2,0-2,2-2,2.84V91l4.73.13V78.93c0-1.9-.6-3.38-2.75-3.38Z"/><path class="cls-2" d="M116,76.75c-1.4-.19-1.22,2.23-1.22,3s.24,11.43.24,11.43l2.78.09s-.18-9.1-.31-11.11-.32-3.3-1.49-3.45Z"/><path class="cls-2" d="M121.34,78.26,122,91.54h.7s.13-14.19-1.35-13.28Z"/><polygon class="cls-2" points="28.71 103.52 26.21 103.52 26.21 99.98 28.71 99.98 28.71 103.52 28.71 103.52"/><path class="cls-2" d="M142.21,106.45V98.56a964.55,964.55,0,0,0-109-.09V107c10.18-.3,53.3-1.4,109-.56Z"/><polygon class="cls-2" points="150.5 105.09 145.3 104.95 145.3 98.71 150.5 99.15 150.5 105.09 150.5 105.09"/><polygon class="cls-2" points="156.47 110.46 161.1 110.46 161.1 118.05 156.47 118.05 156.47 110.46 156.47 110.46"/><polygon class="cls-2" points="14.83 110.51 14.83 116.31 19.25 116.44 19.25 110.51 14.83 110.51 14.83 110.51"/><polygon class="cls-2" points="25.38 111.34 25.38 120.18 35.88 120.18 38.79 117.68 81.05 118.25 81.05 122.26 100.23 122.26 99.71 118.2 141.09 117.68 144 120.18 153.46 119.92 152.73 111.34 25.38 111.34 25.38 111.34"/></g></g></svg>