<svg xmlns="http://www.w3.org/2000/svg" viewBox="0 0 455.51 225.76"><defs><style>.cls-1{fill:#fce19d;}.cls-2{fill:#101425;}</style></defs><g id="Layer_2" data-name="Layer 2"><g id="Ebene_1" data-name="Ebene 1"><polygon class="cls-1" points="17.65 204.39 14.18 204.42 14.11 196.85 17.59 196.82 17.65 204.39 17.65 204.39"/><polygon class="cls-1" points="17.46 181.16 14.08 181.19 14.02 174.67 17.4 174.64 17.46 181.16 17.46 181.16"/><path class="cls-2" d="M211.44.11c-1.5-.73-1.67,2.37-.53,2.9l-8.24,51.58s-2.46.18-2.46,2.46v6.49h-1.32V74h-1.67v32h-1.57v2.81h-1.14v6.58h-1.23v52.23h-16.5l-14.3-25.91H97L77.38,168.47H17.55L0,188.12H2.54v37.64h453v-63H348.74v-8.6l2.9-2.46-45.89-15.53v-9.65l2-2.1-33.08-12.11h1.76l-7.46-3h-9.21l-7.11,3.16h1.58l-25.18,12.28-1.75,5.79v-15.7h-1v-6.5h-1.06v-2.89h-1.49V73.54h-1.49V63.19h-1V56.7a3.57,3.57,0,0,0-1.84-2.9L211.53,3s1.84-2-.09-2.9Z"/><polygon class="cls-1" points="439.67 186.63 436.86 186.63 436.86 180.23 439.67 180.23 439.67 186.63 439.67 186.63"/><polygon class="cls-1" points="433.38 186.63 430.58 186.63 430.58 180.23 433.38 180.23 433.38 186.63 433.38 186.63"/><polygon class="cls-1" points="427.1 186.63 424.29 186.63 424.29 180.23 427.1 180.23 427.1 186.63 427.1 186.63"/><polygon class="cls-1" points="420.82 186.63 418.01 186.63 418.01 180.23 420.82 180.23 420.82 186.63 420.82 186.63"/><polygon class="cls-1" points="414.53 186.63 411.73 186.63 411.73 180.23 414.53 180.23 414.53 186.63 414.53 186.63"/><polygon class="cls-1" points="408.25 186.63 405.44 186.63 405.44 180.23 408.25 180.23 408.25 186.63 408.25 186.63"/><polygon class="cls-1" points="401.97 186.63 399.16 186.63 399.16 180.23 401.97 180.23 401.97 186.63 401.97 186.63"/><polygon class="cls-1" points="395.69 186.63 392.88 186.63 392.88 180.23 395.69 180.23 395.69 186.63 395.69 186.63"/><polygon class="cls-1" points="389.4 186.63 386.59 186.63 386.59 180.23 389.4 180.23 389.4 186.63 389.4 186.63"/><polygon class="cls-1" points="383.12 186.63 380.31 186.63 380.31 180.23 383.12 180.23 383.12 186.63 383.12 186.63"/><polygon class="cls-1" points="376.84 186.63 374.03 186.63 374.03 180.23 376.84 180.23 376.84 186.63 376.84 186.63"/><polygon class="cls-1" points="370.55 186.63 367.75 186.63 367.75 180.23 370.55 180.23 370.55 186.63 370.55 186.63"/><polygon class="cls-1" points="364.27 186.63 361.46 186.63 361.46 180.23 364.27 180.23 364.27 186.63 364.27 186.63"/><polygon class="cls-1" points="445.95 186.63 443.14 186.63 443.14 180.23 445.95 180.23 445.95 186.63 445.95 186.63"/><polygon class="cls-1" points="439.67 197.14 436.86 197.14 436.86 190.74 439.67 190.74 439.67 197.14 439.67 197.14"/><polygon class="cls-1" points="433.38 197.14 430.58 197.14 430.58 190.74 433.38 190.74 433.38 197.14 433.38 197.14"/><polygon class="cls-1" points="427.1 197.14 424.29 197.14 424.29 190.74 427.1 190.74 427.1 197.14 427.1 197.14"/><polygon class="cls-1" points="420.82 197.14 418.01 197.14 418.01 190.74 420.82 190.74 420.82 197.14 420.82 197.14"/><polygon class="cls-1" points="414.53 197.14 411.73 197.14 411.73 190.74 414.53 190.74 414.53 197.14 414.53 197.14"/><polygon class="cls-1" points="408.25 197.14 405.44 197.14 405.44 190.74 408.25 190.74 408.25 197.14 408.25 197.14"/><polygon class="cls-1" points="401.97 197.14 399.16 197.14 399.16 190.74 401.97 190.74 401.97 197.14 401.97 197.14"/><polygon class="cls-1" points="395.69 197.14 392.88 197.14 392.88 190.74 395.69 190.74 395.69 197.14 395.69 197.14"/><polygon class="cls-1" points="389.4 197.14 386.59 197.14 386.59 190.74 389.4 190.74 389.4 197.14 389.4 197.14"/><polygon class="cls-1" points="383.12 197.14 380.31 197.14 380.31 190.74 383.12 190.74 383.12 197.14 383.12 197.14"/><polygon class="cls-1" points="376.84 197.14 374.03 197.14 374.03 190.74 376.84 190.74 376.84 197.14 376.84 197.14"/><polygon class="cls-1" points="370.55 197.14 367.75 197.14 367.75 190.74 370.55 190.74 370.55 197.14 370.55 197.14"/><polygon class="cls-1" points="364.27 197.14 361.46 197.14 361.46 190.74 364.27 190.74 364.27 197.14 364.27 197.14"/><polygon class="cls-1" points="445.95 197.14 443.14 197.14 443.14 190.74 445.95 190.74 445.95 197.14 445.95 197.14"/><polygon class="cls-1" points="439.67 207.66 436.86 207.66 436.86 201.25 439.67 201.25 439.67 207.66 439.67 207.66"/><polygon class="cls-1" points="433.38 207.66 430.58 207.66 430.58 201.25 433.38 201.25 433.38 207.66 433.38 207.66"/><polygon class="cls-1" points="427.1 207.66 424.29 207.66 424.29 201.25 427.1 201.25 427.1 207.66 427.1 207.66"/><polygon class="cls-1" points="420.82 207.66 418.01 207.66 418.01 201.25 420.82 201.25 420.82 207.66 420.82 207.66"/><polygon class="cls-1" points="414.53 207.66 411.73 207.66 411.73 201.25 414.53 201.25 414.53 207.66 414.53 207.66"/><polygon class="cls-1" points="408.25 207.66 405.44 207.66 405.44 201.25 408.25 201.25 408.25 207.66 408.25 207.66"/><polygon class="cls-1" points="401.97 207.66 399.16 207.66 399.16 201.25 401.97 201.25 401.97 207.66 401.97 207.66"/><polygon class="cls-1" points="395.69 207.66 392.88 207.66 392.88 201.25 395.69 201.25 395.69 207.66 395.69 207.66"/><polygon class="cls-1" points="389.4 207.66 386.59 207.66 386.59 201.25 389.4 201.25 389.4 207.66 389.4 207.66"/><polygon class="cls-1" points="383.12 207.66 380.31 207.66 380.31 201.25 383.12 201.25 383.12 207.66 383.12 207.66"/><polygon class="cls-1" points="376.84 207.66 374.03 207.66 374.03 201.25 376.84 201.25 376.84 207.66 376.84 207.66"/><polygon class="cls-1" points="370.55 207.66 367.75 207.66 367.75 201.25 370.55 201.25 370.55 207.66 370.55 207.66"/><polygon class="cls-1" points="364.27 207.66 361.46 207.66 361.46 201.25 364.27 201.25 364.27 207.66 364.27 207.66"/><polygon class="cls-1" points="445.95 207.66 443.14 207.66 443.14 201.25 445.95 201.25 445.95 207.66 445.95 207.66"/><polygon class="cls-1" points="439.67 218.17 436.86 218.17 436.86 211.77 439.67 211.77 439.67 218.17 439.67 218.17"/><polygon class="cls-1" points="433.38 218.17 430.58 218.17 430.58 211.77 433.38 211.77 433.38 218.17 433.38 218.17"/><polygon class="cls-1" points="427.1 218.17 424.29 218.17 424.29 211.77 427.1 211.77 427.1 218.17 427.1 218.17"/><polygon class="cls-1" points="420.82 218.17 418.01 218.17 418.01 211.77 420.82 211.77 420.82 218.17 420.82 218.17"/><polygon class="cls-1" points="414.53 218.17 411.73 218.17 411.73 211.77 414.53 211.77 414.53 218.17 414.53 218.17"/><polygon class="cls-1" points="408.25 218.17 405.44 218.17 405.44 211.77 408.25 211.77 408.25 218.17 408.25 218.17"/><polygon class="cls-1" points="401.97 218.17 399.16 218.17 399.16 211.77 401.97 211.77 401.97 218.17 401.97 218.17"/><polygon class="cls-1" points="395.69 218.17 392.88 218.17 392.88 211.77 395.69 211.77 395.69 218.17 395.69 218.17"/><polygon class="cls-1" points="389.4 218.17 386.59 218.17 386.59 211.77 389.4 211.77 389.4 218.17 389.4 218.17"/><polygon class="cls-1" points="383.12 218.17 380.31 218.17 380.31 211.77 383.12 211.77 383.12 218.17 383.12 218.17"/><polygon class="cls-1" points="376.84 218.17 374.03 218.17 374.03 211.77 376.84 211.77 376.84 218.17 376.84 218.17"/><polygon class="cls-1" points="370.55 218.17 367.75 218.17 367.75 211.77 370.55 211.77 370.55 218.17 370.55 218.17"/><polygon class="cls-1" points="364.27 218.17 361.46 218.17 361.46 211.77 364.27 211.77 364.27 218.17 364.27 218.17"/><polygon class="cls-1" points="445.95 218.17 443.14 218.17 443.14 211.77 445.95 211.77 445.95 218.17 445.95 218.17"/><polygon class="cls-1" points="286.18 134.17 282.84 134.17 282.84 128.38 286.18 128.38 286.18 134.17 286.18 134.17"/><polygon class="cls-1" points="280.55 134.17 277.22 134.17 277.22 128.38 280.55 128.38 280.55 134.17 280.55 134.17"/><polygon class="cls-1" points="274.92 134.17 271.59 134.17 271.59 128.38 274.92 128.38 274.92 134.17 274.92 134.17"/><polygon class="cls-1" points="269.3 134.17 265.96 134.17 265.96 128.38 269.3 128.38 269.3 134.17 269.3 134.17"/><polygon class="cls-1" points="263.67 134.17 260.34 134.17 260.34 128.38 263.67 128.38 263.67 134.17 263.67 134.17"/><polygon class="cls-1" points="258.05 134.17 254.71 134.17 254.71 128.38 258.05 128.38 258.05 134.17 258.05 134.17"/><polygon class="cls-1" points="252.42 134.17 249.09 134.17 249.09 128.38 252.42 128.38 252.42 134.17 252.42 134.17"/><polygon class="cls-1" points="246.79 134.17 243.46 134.17 243.46 128.38 246.79 128.38 246.79 134.17 246.79 134.17"/><polygon class="cls-1" points="291.8 134.17 288.47 134.17 288.47 128.38 291.8 128.38 291.8 134.17 291.8 134.17"/><polygon class="cls-1" points="236 163.91 229.69 163.91 229.69 156.8 236 156.8 236 163.91 236 163.91"/><polygon class="cls-1" points="244.16 163.91 237.85 163.91 237.85 156.8 244.16 156.8 244.16 163.91 244.16 163.91"/><polygon class="cls-1" points="331.98 163.91 325.67 163.91 325.67 156.8 331.98 156.8 331.98 163.91 331.98 163.91"/><polygon class="cls-1" points="340.14 163.91 333.83 163.91 333.83 156.8 340.14 156.8 340.14 163.91 340.14 163.91"/><polygon class="cls-1" points="272.41 163.91 265.96 163.91 265.96 156.63 272.41 156.63 272.41 163.91 272.41 163.91"/><polygon class="cls-1" points="280.7 163.91 274.25 163.91 274.25 156.63 280.7 156.63 280.7 163.91 280.7 163.91"/><polygon class="cls-1" points="288.98 163.91 282.54 163.91 282.54 156.63 288.98 156.63 288.98 163.91 288.98 163.91"/><polygon class="cls-1" points="297.27 163.91 290.82 163.91 290.82 156.63 297.27 156.63 297.27 163.91 297.27 163.91"/><polygon class="cls-1" points="305.55 163.91 299.11 163.91 299.11 156.63 305.55 156.63 305.55 163.91 305.55 163.91"/><path class="cls-1" d="M269.69,173.82c-5.87,0-5.87,4.65-5.87,5.44v17.11h11.75V179.26c0-.79,0-5.44-5.88-5.44Z"/><path class="cls-1" d="M285.18,173.82c-5.88,0-5.88,4.65-5.88,5.44v17.11h11.76V179.26c0-.79,0-5.44-5.88-5.44Z"/><path class="cls-1" d="M300.66,173.82c-5.87,0-5.87,4.65-5.87,5.44v17.11h11.75V179.26c0-.79,0-5.44-5.88-5.44Z"/><path class="cls-1" d="M263.82,202.58v17.11h11.75V202.58Z"/><path class="cls-1" d="M279.3,202.58v17.11h11.76V202.58Z"/><path class="cls-1" d="M294.79,202.58v17.11h11.75V202.58Z"/><polygon class="cls-1" points="239.25 196.37 234.34 196.37 234.34 187.95 239.25 187.95 239.25 196.37 239.25 196.37"/><polygon class="cls-1" points="213.02 225.76 208.1 225.76 208.1 217.86 213.02 217.86 213.02 225.76 213.02 225.76"/><polygon class="cls-1" points="213.02 214.53 208.1 214.53 208.1 209 213.02 209 213.02 214.53 213.02 214.53"/><polygon class="cls-1" points="213.02 204 208.1 204 208.1 196.37 213.02 196.37 213.02 204 213.02 204"/><polygon class="cls-1" points="213.02 190.05 208.1 190.05 208.1 184.13 213.02 184.13 213.02 190.05 213.02 190.05"/><path class="cls-1" d="M210.65,119.43a4.91,4.91,0,1,0,4.91,4.91,4.92,4.92,0,0,0-4.91-4.91Zm0,10.53a5.62,5.62,0,1,1,5.61-5.62,5.62,5.62,0,0,1-5.61,5.62Z"/><path class="cls-1" d="M210.65,121.53a2.81,2.81,0,1,0,2.81,2.81,2.81,2.81,0,0,0-2.81-2.81Zm0,6.32a3.51,3.51,0,1,1,3.51-3.51,3.51,3.51,0,0,1-3.51,3.51Z"/><path class="cls-1" d="M211.35,124.34a.7.7,0,1,1-.7-.7.7.7,0,0,1,.7.7Z"/><path class="cls-1" d="M212.8,124.69h-2.15a.34.34,0,0,1-.32-.21l-1.58-3.73a.34.34,0,0,1,.18-.46.35.35,0,0,1,.46.19l1.49,3.51h1.92a.35.35,0,1,1,0,.7Z"/><polygon class="cls-1" points="214.68 67.84 207.14 67.84 207.14 65.03 214.68 65.03 214.68 67.84 214.68 67.84"/><polygon class="cls-1" points="205.03 84.86 201.52 84.86 201.52 81.26 205.03 81.26 205.03 84.86 205.03 84.86"/><polygon class="cls-1" points="220.3 84.86 216.79 84.86 216.79 81.26 220.3 81.26 220.3 84.86 220.3 84.86"/><polygon class="cls-1" points="212.67 84.86 209.16 84.86 209.16 81.26 212.67 81.26 212.67 84.86 212.67 84.86"/><polygon class="cls-1" points="205.03 108.15 201.52 108.15 201.52 104.56 205.03 104.56 205.03 108.15 205.03 108.15"/><polygon class="cls-1" points="220.3 108.15 216.79 108.15 216.79 104.56 220.3 104.56 220.3 108.15 220.3 108.15"/><polygon class="cls-1" points="212.67 108.15 209.16 108.15 209.16 104.56 212.67 104.56 212.67 108.15 212.67 108.15"/><polygon class="cls-1" points="209.88 140.48 206.2 140.48 206.2 135.48 209.88 135.48 209.88 140.48 209.88 140.48"/><polygon class="cls-1" points="214.93 140.48 211.24 140.48 211.24 135.48 214.93 135.48 214.93 140.48 214.93 140.48"/><polygon class="cls-1" points="209.88 150.7 206.2 150.7 206.2 145.7 209.88 145.7 209.88 150.7 209.88 150.7"/><polygon class="cls-1" points="214.93 150.7 211.24 150.7 211.24 145.7 214.93 145.7 214.93 150.7 214.93 150.7"/><polygon class="cls-1" points="209.88 160.93 206.2 160.93 206.2 155.92 209.88 155.92 209.88 160.93 209.88 160.93"/><polygon class="cls-1" points="214.93 160.93 211.24 160.93 211.24 155.92 214.93 155.92 214.93 160.93 214.93 160.93"/><polygon class="cls-1" points="209.88 171.15 206.2 171.15 206.2 166.15 209.88 166.15 209.88 171.15 209.88 171.15"/><polygon class="cls-1" points="214.93 171.15 211.24 171.15 211.24 166.15 214.93 166.15 214.93 171.15 214.93 171.15"/><polygon class="cls-1" points="186.81 196.37 183.12 196.37 183.12 189.66 186.81 189.66 186.81 196.37 186.81 196.37"/><polygon class="cls-1" points="191.85 196.37 188.17 196.37 188.17 189.66 191.85 189.66 191.85 196.37 191.85 196.37"/><polygon class="cls-1" points="186.81 207.13 183.12 207.13 183.12 200.42 186.81 200.42 186.81 207.13 186.81 207.13"/><polygon class="cls-1" points="191.85 207.13 188.17 207.13 188.17 200.42 191.85 200.42 191.85 207.13 191.85 207.13"/><polygon class="cls-1" points="186.81 217.89 183.12 217.89 183.12 211.17 186.81 211.17 186.81 217.89 186.81 217.89"/><polygon class="cls-1" points="191.85 217.89 188.17 217.89 188.17 211.17 191.85 211.17 191.85 217.89 191.85 217.89"/><polygon class="cls-1" points="188.63 174.44 186.35 174.44 186.35 170.58 188.63 170.58 188.63 174.44 188.63 174.44"/><polygon class="cls-1" points="191.17 184.7 183.8 184.7 183.8 180.84 191.17 180.84 191.17 184.7 191.17 184.7"/><polygon class="cls-1" points="109.49 183.47 101.95 183.47 101.95 177.51 109.49 177.51 109.49 183.47 109.49 183.47"/><polygon class="cls-1" points="120.15 183.47 112.61 183.47 112.61 177.51 120.15 177.51 120.15 183.47 120.15 183.47"/><polygon class="cls-1" points="130.81 183.47 123.27 183.47 123.27 177.51 130.81 177.51 130.81 183.47 130.81 183.47"/><polygon class="cls-1" points="141.47 183.47 133.93 183.47 133.93 177.51 141.47 177.51 141.47 183.47 141.47 183.47"/><polygon class="cls-1" points="152.13 183.47 144.59 183.47 144.59 177.51 152.13 177.51 152.13 183.47 152.13 183.47"/><polygon class="cls-1" points="162.79 183.47 155.25 183.47 155.25 177.51 162.79 177.51 162.79 183.47 162.79 183.47"/><polygon class="cls-1" points="173.45 183.47 165.9 183.47 165.9 177.51 173.45 177.51 173.45 183.47 173.45 183.47"/><polygon class="cls-1" points="109.49 203.04 101.95 203.04 101.95 189.35 109.49 189.35 109.49 203.04 109.49 203.04"/><polygon class="cls-1" points="120.15 203.04 112.61 203.04 112.61 189.35 120.15 189.35 120.15 203.04 120.15 203.04"/><polygon class="cls-1" points="130.81 203.04 123.27 203.04 123.27 189.35 130.81 189.35 130.81 203.04 130.81 203.04"/><polygon class="cls-1" points="141.47 203.04 133.93 203.04 133.93 189.35 141.47 189.35 141.47 203.04 141.47 203.04"/><polygon class="cls-1" points="152.13 203.04 144.59 203.04 144.59 189.35 152.13 189.35 152.13 203.04 152.13 203.04"/><polygon class="cls-1" points="162.79 203.04 155.25 203.04 155.25 189.35 162.79 189.35 162.79 203.04 162.79 203.04"/><polygon class="cls-1" points="173.45 203.04 165.9 203.04 165.9 189.35 173.45 189.35 173.45 203.04 173.45 203.04"/><polygon class="cls-1" points="109.49 217.86 101.95 217.86 101.95 209.62 109.49 209.62 109.49 217.86 109.49 217.86"/><polygon class="cls-1" points="120.15 217.86 112.61 217.86 112.61 209.62 120.15 209.62 120.15 217.86 120.15 217.86"/><polygon class="cls-1" points="130.81 217.86 123.27 217.86 123.27 209.62 130.81 209.62 130.81 217.86 130.81 217.86"/><polygon class="cls-1" points="141.47 217.86 133.93 217.86 133.93 209.62 141.47 209.62 141.47 217.86 141.47 217.86"/><polygon class="cls-1" points="152.13 217.86 144.59 217.86 144.59 209.62 152.13 209.62 152.13 217.86 152.13 217.86"/><polygon class="cls-1" points="162.79 217.86 155.25 217.86 155.25 209.62 162.79 209.62 162.79 217.86 162.79 217.86"/><polygon class="cls-1" points="173.45 217.86 165.9 217.86 165.9 209.62 173.45 209.62 173.45 217.86 173.45 217.86"/><polygon class="cls-1" points="86.68 183.91 80.19 183.91 80.19 177.51 86.68 177.51 86.68 183.91 86.68 183.91"/><polygon class="cls-1" points="95.54 183.91 89.05 183.91 89.05 177.51 95.54 177.51 95.54 183.91 95.54 183.91"/><polygon class="cls-1" points="86.68 194.92 80.19 194.92 80.19 188.52 86.68 188.52 86.68 194.92 86.68 194.92"/><polygon class="cls-1" points="95.54 194.92 89.05 194.92 89.05 188.52 95.54 188.52 95.54 194.92 95.54 194.92"/><polygon class="cls-1" points="86.68 205.93 80.19 205.93 80.19 199.53 86.68 199.53 86.68 205.93 86.68 205.93"/><polygon class="cls-1" points="95.54 205.93 89.05 205.93 89.05 199.53 95.54 199.53 95.54 205.93 95.54 205.93"/><polygon class="cls-1" points="86.68 217.86 80.19 217.86 80.19 209.62 86.68 209.62 86.68 217.86 86.68 217.86"/><polygon class="cls-1" points="95.54 217.86 89.05 217.86 89.05 209.62 95.54 209.62 95.54 217.86 95.54 217.86"/><polygon class="cls-1" points="17.9 186.1 14.48 186.1 14.48 180.71 17.9 180.71 17.9 186.1 17.9 186.1"/><polygon class="cls-1" points="21.85 186.1 18.42 186.1 18.42 180.71 21.85 180.71 21.85 186.1 21.85 186.1"/><polygon class="cls-1" points="34 186.1 30.57 186.1 30.57 180.71 34 180.71 34 186.1 34 186.1"/><polygon class="cls-1" points="37.95 186.1 34.52 186.1 34.52 180.71 37.95 180.71 37.95 186.1 37.95 186.1"/><polygon class="cls-1" points="50.1 186.1 46.67 186.1 46.67 180.71 50.1 180.71 50.1 186.1 50.1 186.1"/><polygon class="cls-1" points="54.04 186.1 50.62 186.1 50.62 180.71 54.04 180.71 54.04 186.1 54.04 186.1"/><polygon class="cls-1" points="66.19 186.1 62.77 186.1 62.77 180.71 66.19 180.71 66.19 186.1 66.19 186.1"/><polygon class="cls-1" points="70.14 186.1 66.72 186.1 66.72 180.71 70.14 180.71 70.14 186.1 70.14 186.1"/><polygon class="cls-1" points="18.42 195.4 14.48 195.4 14.48 189.35 18.42 189.35 18.42 195.4 18.42 195.4"/><polygon class="cls-1" points="26.67 195.4 22.72 195.4 22.72 189.35 26.67 189.35 26.67 195.4 26.67 195.4"/><polygon class="cls-1" points="31.58 195.4 27.64 195.4 27.64 189.35 31.58 189.35 31.58 195.4 31.58 195.4"/><polygon class="cls-1" points="36.5 195.4 32.55 195.4 32.55 189.35 36.5 189.35 36.5 195.4 36.5 195.4"/><polygon class="cls-1" points="67.2 195.4 63.26 195.4 63.26 189.35 67.2 189.35 67.2 195.4 67.2 195.4"/><polygon class="cls-1" points="72.12 195.4 68.17 195.4 68.17 189.35 72.12 189.35 72.12 195.4 72.12 195.4"/><polygon class="cls-1" points="77.03 195.4 73.08 195.4 73.08 189.35 77.03 189.35 77.03 195.4 77.03 195.4"/><polygon class="cls-1" points="44.44 195.4 40.49 195.4 40.49 189.35 44.44 189.35 44.44 195.4 44.44 195.4"/><polygon class="cls-1" points="49.38 195.4 45.43 195.4 45.43 189.35 49.38 189.35 49.38 195.4 49.38 195.4"/><polygon class="cls-1" points="54.32 195.4 50.37 195.4 50.37 189.35 54.32 189.35 54.32 195.4 54.32 195.4"/><polygon class="cls-1" points="59.26 195.4 55.32 195.4 55.32 189.35 59.26 189.35 59.26 195.4 59.26 195.4"/><polygon class="cls-1" points="18.42 205.54 14.48 205.54 14.48 199.48 18.42 199.48 18.42 205.54 18.42 205.54"/><polygon class="cls-1" points="26.67 205.54 22.72 205.54 22.72 199.48 26.67 199.48 26.67 205.54 26.67 205.54"/><polygon class="cls-1" points="31.58 205.54 27.64 205.54 27.64 199.48 31.58 199.48 31.58 205.54 31.58 205.54"/><polygon class="cls-1" points="36.5 205.54 32.55 205.54 32.55 199.48 36.5 199.48 36.5 205.54 36.5 205.54"/><polygon class="cls-1" points="67.2 205.54 63.26 205.54 63.26 199.48 67.2 199.48 67.2 205.54 67.2 205.54"/><polygon class="cls-1" points="72.12 205.54 68.17 205.54 68.17 199.48 72.12 199.48 72.12 205.54 72.12 205.54"/><polygon class="cls-1" points="77.03 205.54 73.08 205.54 73.08 199.48 77.03 199.48 77.03 205.54 77.03 205.54"/><polygon class="cls-1" points="44.44 205.54 40.49 205.54 40.49 199.48 44.44 199.48 44.44 205.54 44.44 205.54"/><polygon class="cls-1" points="49.38 205.54 45.43 205.54 45.43 199.48 49.38 199.48 49.38 205.54 49.38 205.54"/><polygon class="cls-1" points="54.32 205.54 50.37 205.54 50.37 199.48 54.32 199.48 54.32 205.54 54.32 205.54"/><polygon class="cls-1" points="59.26 205.54 55.32 205.54 55.32 199.48 59.26 199.48 59.26 205.54 59.26 205.54"/><polygon class="cls-1" points="18.42 215.67 14.48 215.67 14.48 209.62 18.42 209.62 18.42 215.67 18.42 215.67"/><polygon class="cls-1" points="26.67 215.67 22.72 215.67 22.72 209.62 26.67 209.62 26.67 215.67 26.67 215.67"/><polygon class="cls-1" points="31.58 215.67 27.64 215.67 27.64 209.62 31.58 209.62 31.58 215.67 31.58 215.67"/><polygon class="cls-1" points="36.5 215.67 32.55 215.67 32.55 209.62 36.5 209.62 36.5 215.67 36.5 215.67"/><polygon class="cls-1" points="67.2 215.67 63.26 215.67 63.26 209.62 67.2 209.62 67.2 215.67 67.2 215.67"/><polygon class="cls-1" points="72.12 215.67 68.17 215.67 68.17 209.62 72.12 209.62 72.12 215.67 72.12 215.67"/><polygon class="cls-1" points="77.03 215.67 73.08 215.67 73.08 209.62 77.03 209.62 77.03 215.67 77.03 215.67"/><polygon class="cls-1" points="44.44 215.67 40.49 215.67 40.49 209.62 44.44 209.62 44.44 215.67 44.44 215.67"/><polygon class="cls-1" points="49.38 215.67 45.43 215.67 45.43 209.62 49.38 209.62 49.38 215.67 49.38 215.67"/><polygon class="cls-1" points="54.32 215.67 50.37 215.67 50.37 209.62 54.32 209.62 54.32 215.67 54.32 215.67"/><polygon class="cls-1" points="59.26 215.67 55.32 215.67 55.32 209.62 59.26 209.62 59.26 215.67 59.26 215.67"/></g></g></svg>